Coordinates
version=1
nRows=6
nColumns=63
inDegrees=yes

Units are S.I. units (second, meters, Newtons, ...)
If the header above contains a line with 'inDegrees', this indicates whether rotational values are in degrees (yes) or radians (no).

endheader
time	pelvis_tilt	pelvis_list	pelvis_rotation	pelvis_tx	pelvis_ty	pelvis_tz	hip_flexion_r	hip_adduction_r	hip_rotation_r	knee_angle_r	knee_angle_r_beta	ankle_angle_r	subtalar_angle_r	mtp_angle_r	hip_flexion_l	hip_adduction_l	hip_rotation_l	knee_angle_l	knee_angle_l_beta	ankle_angle_l	subtalar_angle_l	mtp_angle_l	L5_S1_Flex_Ext	L5_S1_Lat_Bending	L5_S1_axial_rotation	L4_L5_Flex_Ext	L4_L5_Lat_Bending	L4_L5_axial_rotation	L3_L4_Flex_Ext	L3_L4_Lat_Bending	L3_L4_axial_rotation	L2_L3_Flex_Ext	L2_L3_Lat_Bending	L2_L3_axial_rotation	L1_L2_Flex_Ext	L1_L2_Lat_Bending	L1_L2_axial_rotation	L1_T12_Flex_Ext	L1_T12_Lat_Bending	L1_T12_axial_rotation	Abs_r3	Abs_r2	Abs_r1	Abs_t1	Abs_t2	neck_flexion	neck_bending	neck_rotation	arm_flex_r	arm_add_r	arm_rot_r	elbow_flex_r	pro_sup_r	wrist_flex_r	wrist_dev_r	arm_flex_l	arm_add_l	arm_rot_l	elbow_flex_l	pro_sup_l	wrist_flex_l	wrist_dev_l
2.650000	-3.171652	-0.361098	109.264092	0.095104	0.785075	0.692468	-5.572618	-6.246986	-17.605173	14.649262	0.255678	40.416214	1.080926	0.000000	-1.710624	3.842073	4.358554	12.246368	0.213739	36.058275	17.768432	0.000000	0.229525	-1.108652	2.424556	0.426251	-1.474507	2.576091	0.377087	-2.695576	2.576091	0.262324	-2.695576	2.121486	0.213137	-2.260762	1.969952	0.131151	-1.717301	1.818417	1.639475	-12.541289	13.484653	0.000000	0.000000	9.842525	-2.718015	-12.092148	55.875437	-32.202254	-5.073157	56.231626	51.354238	-0.317791	7.173716	8.422766	-16.703732	62.213010	34.256663	84.810432	-0.604853	0.526709
2.666667	-3.154926	-0.430469	109.195380	0.094799	0.785029	0.692897	-5.507278	-6.303293	-17.734433	14.665171	0.255956	40.339361	1.210832	0.000000	-1.712641	3.871450	4.394444	12.109774	0.211355	35.853344	17.714015	0.000000	0.231422	-1.100517	2.384460	0.429774	-1.463688	2.533488	0.380203	-2.675797	2.533488	0.264492	-2.675797	2.086402	0.214899	-2.244174	1.937374	0.132235	-1.704701	1.788345	1.653025	-12.449268	13.261650	0.000000	0.000000	10.286490	-2.832943	-11.267539	55.511283	-31.818738	-7.800537	58.983618	50.735048	0.029868	8.000388	8.648617	-16.695537	62.386602	34.422483	85.205133	-0.965475	0.707510
2.683333	-3.128754	-0.517934	109.069992	0.094568	0.785069	0.693423	-5.401884	-6.354731	-17.733171	14.680428	0.256222	40.190075	1.210168	0.000000	-1.701449	3.908794	4.445841	11.911394	0.207893	35.652948	17.655718	0.000000	0.232743	-1.091879	2.353158	0.432227	-1.452200	2.500231	0.382374	-2.654796	2.500231	0.266002	-2.654796	2.059014	0.216125	-2.226561	1.911941	0.132989	-1.691321	1.764869	1.662461	-12.351558	13.087561	0.000000	0.000000	10.750503	-2.964967	-10.716294	55.005848	-31.480951	-10.706331	62.298802	50.680642	0.308354	9.199470	8.954630	-16.707734	62.599233	34.706315	85.684768	-1.537168	0.941460
2.700000	-3.100406	-0.620738	108.890860	0.094420	0.785198	0.694033	-5.258085	-6.412217	-17.638637	14.701068	0.256582	39.993668	1.135259	0.000000	-1.675440	3.958164	4.501386	11.669783	0.203676	35.458073	17.592850	0.000000	0.232592	-1.083387	2.331228	0.431946	-1.440904	2.476930	0.382125	-2.634146	2.476930	0.265829	-2.634146	2.039825	0.215985	-2.209242	1.894123	0.132903	-1.678166	1.748421	1.661381	-12.255485	12.965592	0.000000	0.000000	11.229808	-3.147052	-10.481741	54.360001	-31.151416	-13.781043	66.123715	51.255482	0.732870	10.533216	9.361073	-16.750746	62.898338	35.102267	86.180842	-2.383456	1.148346
2.716667	-3.066697	-0.737793	108.664165	0.094354	0.785401	0.694688	-5.078279	-6.470723	-17.460450	14.724848	0.256997	39.767525	1.010759	0.000000	-1.637614	4.011890	4.546608	11.387648	0.198752	35.268939	17.527047	0.000000	0.231305	-1.074782	2.317312	0.429556	-1.429460	2.462144	0.380011	-2.613224	2.462144	0.264358	-2.613224	2.027648	0.214790	-2.191695	1.882816	0.132168	-1.664837	1.737984	1.652186	-12.158144	12.888196	0.000000	0.000000	11.733258	-3.386920	-10.564777	53.559297	-30.803198	-16.983312	70.387516	52.478628	1.373493	11.782076	9.851491	-16.819939	63.206412	35.591662	86.695369	-3.507182	1.247338
2.733333	-3.022048	-0.856352	108.410095	0.094355	0.785671	0.695370	-4.879179	-6.519433	-17.233919	14.746850	0.257381	39.534171	0.875145	0.000000	-1.594998	4.055854	4.579904	11.081021	0.193400	35.090906	17.468089	0.000000	0.227788	-1.064938	2.304175	0.423026	-1.416367	2.448186	0.374233	-2.589289	2.448186	0.260339	-2.589289	2.016153	0.211524	-2.171621	1.872142	0.130158	-1.649588	1.728131	1.627069	-12.046787	12.815131	0.000000	0.000000	12.258733	-3.727507	-10.967988	52.609413	-30.411660	-20.205841	74.971700	54.349962	2.281703	12.676831	10.393175	-16.907069	63.394460	36.160772	87.208352	-4.829141	1.179074
